<svg width="134" height="134" viewBox="0 0 134 134" fill="none" xmlns="http://www.w3.org/2000/svg">
<path d="M104.965 36.8502L73.6994 13.4005C71.7665 11.9508 69.4158 11.167 66.9997 11.167C64.5835 11.167 62.2315 11.9508 60.2986 13.4005L29.0327 36.8502C26.9525 38.4104 25.2639 40.4335 24.101 42.7593C22.9381 45.0851 22.333 47.65 22.333 50.2503V111.667C22.333 114.629 23.509 117.469 25.6031 119.563C27.6973 121.657 30.5381 122.834 33.4997 122.834H100.5C103.461 122.834 106.301 121.657 108.395 119.563C110.489 117.469 111.666 114.629 111.666 111.667V50.2503C111.666 47.65 111.06 45.0851 109.897 42.7593C108.734 40.4335 107.046 38.4104 104.965 36.8502V36.8502Z" stroke="#44475C" stroke-width="11.0917" stroke-miterlimit="10"/>
<path d="M67 72.583V106.083" stroke="#44475C" stroke-width="11.0917" stroke-miterlimit="10"/>
</svg>
